<?xml version="1.0" encoding="utf-8"?>
<!-- Generator: Adobe Illustrator 22.1.0, SVG Export Plug-In . SVG Version: 6.00 Build 0)  -->
<svg version="1.1" id="Layer_1" xmlns="http://www.w3.org/2000/svg" xmlns:xlink="http://www.w3.org/1999/xlink" x="0px" y="0px"
	 viewBox="0 0 612 792" style="enable-background:new 0 0 612 792;" xml:space="preserve">
<style type="text/css">
	.st0{fill:#FFFFFF;}
</style>
<g>
	<path class="st0" d="M91.6,354.7v18.6c0,2.5,1.1,3.9,3.6,3.9s3.6-1.3,3.6-3.9v-18.6h5.1v18.6c0,5.8-3.5,8.3-8.7,8.3
		s-8.6-2.5-8.6-8.3v-18.6H91.6z"/>
	<path class="st0" d="M108,381.2v-26.5h5.1v22.1h8.2v4.5H108z"/>
	<path class="st0" d="M137.6,354.7v4.5h-5.9v22.1h-5.1v-22.1h-5.9v-4.5H137.6z"/>
	<path class="st0" d="M152.5,381.2l-4.4-10.8h-2.4v10.8h-5.1v-26.5h7.4c6.1,0,9,2.9,9,7.9c0,3.3-1.2,5.7-4,6.8l5,11.8H152.5z
		 M145.7,366.2h2.6c2.2,0,3.6-1.1,3.6-3.7s-1.4-3.7-3.6-3.7h-2.6V366.2z"/>
	<path class="st0" d="M160,381.2l6.6-26.5h6.5l6.4,26.5h-4.9l-1.3-5.6h-7l-1.4,5.6H160z M167.2,371.1h5l-2.5-10.7h-0.1L167.2,371.1z
		"/>
	<path class="st0" d="M183,381.2v-26.5h13.2v4.5H188v6.1h6.4v4.5H188v11.5H183z"/>
	<path class="st0" d="M195.4,381.2l6.6-26.5h6.5l6.4,26.5H210l-1.3-5.6h-7l-1.4,5.6H195.4z M202.6,371.1h5l-2.5-10.7h-0.1
		L202.6,371.1z"/>
	<path class="st0" d="M228.1,362.1c-0.8-2.5-1.9-3.6-3.7-3.6c-1.8,0-2.8,1.1-2.8,2.9c0,4,11.3,4.3,11.3,12.6c0,4.6-3.1,7.6-8.5,7.6
		c-4.1,0-7.3-2.2-8.7-7.5l5-1.1c0.6,3.2,2.4,4.3,3.9,4.3c1.8,0,3.1-1.2,3.1-3.2c0-5-11.3-5.1-11.3-12.5c0-4.6,2.7-7.4,8-7.4
		c4.5,0,7.3,2.7,8.2,6.4L228.1,362.1z"/>
	<path class="st0" d="M251.2,354.7v4.5h-5.9v22.1h-5.1v-22.1h-5.9v-4.5H251.2z"/>
	<path class="st0" d="M264.7,381.2v-26.5h7.3c6.2,0,9.3,2.9,9.3,7.9c0,5-3.1,7.9-9.3,7.9h-2.2v10.7H264.7z M269.8,366.4h2.7
		c2.5,0,3.7-1.2,3.7-3.7s-1.2-3.7-3.7-3.7h-2.7V366.4z"/>
	<path class="st0" d="M283.7,381.2v-26.5h5.1v10.6h7.2v-10.6h5.1v26.5h-5.1v-11.5h-7.2v11.5H283.7z"/>
	<path class="st0" d="M304,363.2c0-6.5,3.5-8.9,8.4-8.9c4.9,0,8.4,2.4,8.4,8.9v9.5c0,6.5-3.5,8.9-8.4,8.9c-4.9,0-8.4-2.4-8.4-8.9
		V363.2z M309,373.3c0,2.9,1.3,3.7,3.3,3.7c2,0,3.3-0.8,3.3-3.7v-10.8c0-2.9-1.3-3.7-3.3-3.7c-2,0-3.3,0.8-3.3,3.7V373.3z"/>
	<path class="st0" d="M339.5,354.7v4.5h-5.9v22.1h-5.1v-22.1h-5.9v-4.5H339.5z"/>
	<path class="st0" d="M340.6,363.2c0-6.5,3.5-8.9,8.4-8.9s8.4,2.4,8.4,8.9v9.5c0,6.5-3.5,8.9-8.4,8.9s-8.4-2.4-8.4-8.9V363.2z
		 M345.6,373.3c0,2.9,1.3,3.7,3.3,3.7s3.3-0.8,3.3-3.7v-10.8c0-2.9-1.3-3.7-3.3-3.7s-3.3,0.8-3.3,3.7V373.3z"/>
	<path class="st0" d="M360.3,381.2v-26.5h7.3c6.2,0,9.3,2.9,9.3,7.9c0,5-3.1,7.9-9.3,7.9h-2.2v10.7H360.3z M365.3,366.4h2.7
		c2.5,0,3.7-1.2,3.7-3.7s-1.2-3.7-3.7-3.7h-2.7V366.4z"/>
	<path class="st0" d="M379.2,381.2v-26.5h5.1v10.6h7.2v-10.6h5.1v26.5h-5.1v-11.5h-7.2v11.5H379.2z"/>
	<path class="st0" d="M408.7,365.4l4.3-10.7h5.4l-7.2,15.8v10.7h-5.1v-10.7l-7.2-15.8h5.4L408.7,365.4z"/>
	<path class="st0" d="M430.8,362.1c-0.8-2.5-1.9-3.6-3.7-3.6c-1.8,0-2.8,1.1-2.8,2.9c0,4,11.3,4.3,11.3,12.6c0,4.6-3.1,7.6-8.5,7.6
		c-4.1,0-7.3-2.2-8.7-7.5l5-1.1c0.6,3.2,2.4,4.3,3.9,4.3c1.8,0,3.1-1.2,3.1-3.2c0-5-11.3-5.1-11.3-12.5c0-4.6,2.7-7.4,8-7.4
		c4.5,0,7.3,2.7,8.2,6.4L430.8,362.1z"/>
	<path class="st0" d="M439.6,381.2v-26.5h5.1v26.5H439.6z"/>
	<path class="st0" d="M453.4,373.3c0,2.9,1.3,3.7,3.3,3.7s3.3-0.8,3.3-3.7v-1.8h5.1v1.1c0,6.5-3.5,8.9-8.4,8.9s-8.4-2.4-8.4-8.9
		v-9.5c0-6.5,3.5-8.9,8.4-8.9s8.4,2.4,8.4,8.9v0.1H460v-0.7c0-2.9-1.3-3.7-3.3-3.7s-3.3,0.8-3.3,3.7V373.3z"/>
	<path class="st0" d="M479.7,362.1c-0.8-2.5-1.9-3.6-3.7-3.6c-1.8,0-2.8,1.1-2.8,2.9c0,4,11.3,4.3,11.3,12.6c0,4.6-3.1,7.6-8.5,7.6
		c-4.1,0-7.3-2.2-8.7-7.5l5-1.1c0.6,3.2,2.4,4.3,3.9,4.3c1.8,0,3.1-1.2,3.1-3.2c0-5-11.3-5.1-11.3-12.5c0-4.6,2.7-7.4,8-7.4
		c4.5,0,7.3,2.7,8.2,6.4L479.7,362.1z"/>
	<path class="st0" d="M85.8,395c0-6.5,3.5-8.9,8.4-8.9s8.4,2.4,8.4,8.9v9.5c0,6.5-3.5,8.9-8.4,8.9s-8.4-2.4-8.4-8.9V395z
		 M90.9,405.2c0,2.9,1.3,3.7,3.3,3.7c2,0,3.3-0.8,3.3-3.7v-10.8c0-2.9-1.3-3.7-3.3-3.7c-2,0-3.3,0.8-3.3,3.7V405.2z"/>
	<path class="st0" d="M105.9,413.1v-26.5h13.2v4.5H111v6.1h6.4v4.5H111v11.5H105.9z"/>
	<path class="st0" d="M132.5,386.5h7.1c5.8,0,9,2.5,9.3,9.2v8.2c-0.2,6.7-3.5,9.2-9.3,9.2h-7.1V386.5z M137.5,408.6h1.8
		c2.8,0,4.4-1.3,4.4-5.3v-7c0-3.7-1.2-5.3-4.4-5.3h-1.8V408.6z"/>
	<path class="st0" d="M151.4,413.1v-26.5h13.9v4.5h-8.8v6.1h6.7v4.5h-6.7v7h9.2v4.5H151.4z"/>
	<path class="st0" d="M168.1,386.5h5l4.7,19h0.1l4.6-19h5l-6.8,26.5h-5.8L168.1,386.5z"/>
	<path class="st0" d="M189.8,413.1v-26.5h5.1v26.5H189.8z"/>
	<path class="st0" d="M203.6,405.2c0,2.9,1.3,3.7,3.3,3.7c2,0,3.3-0.8,3.3-3.7v-1.8h5.1v1.1c0,6.5-3.5,8.9-8.4,8.9
		c-4.9,0-8.4-2.4-8.4-8.9V395c0-6.5,3.5-8.9,8.4-8.9c4.9,0,8.4,2.4,8.4,8.9v0.1h-5.1v-0.7c0-2.9-1.3-3.7-3.3-3.7
		c-2,0-3.3,0.8-3.3,3.7V405.2z"/>
	<path class="st0" d="M219.4,413.1v-26.5h13.9v4.5h-8.8v6.1h6.7v4.5h-6.7v7h9.2v4.5H219.4z"/>
	<path class="st0" d="M249,393.9c-0.8-2.5-1.9-3.6-3.7-3.6c-1.8,0-2.8,1.1-2.8,2.9c0,4,11.3,4.3,11.3,12.6c0,4.6-3.1,7.6-8.5,7.6
		c-4.1,0-7.3-2.2-8.7-7.5l5-1.1c0.6,3.2,2.4,4.3,3.9,4.3c1.8,0,3.1-1.2,3.1-3.2c0-5-11.3-5.1-11.3-12.5c0-4.6,2.7-7.4,8-7.4
		c4.5,0,7.3,2.7,8.2,6.4L249,393.9z"/>
	<path class="st0" d="M281.1,410.8c-1.4,1.5-2.8,2.6-4.7,2.6c-4.9,0-8.4-2.4-8.4-8.9V395c0-6.5,3.5-8.9,8.4-8.9c5.2,0,8,3,8.2,9
		h-5.1c0-3.4-1.2-4.5-3.1-4.5c-2,0-3.3,0.8-3.3,3.7v10.8c0,2.9,1.3,3.7,3.3,3.7c1.9,0,3.1-1.4,3.1-3.7v-1.6h-3.6v-4.2h8.6v13.6h-2.6
		L281.1,410.8z"/>
	<path class="st0" d="M300.8,413.1l-4.4-10.8H294v10.8h-5.1v-26.5h7.4c6.1,0,9,2.9,9,7.9c0,3.3-1.2,5.7-4,6.8l5,11.8H300.8z
		 M294,398.1h2.6c2.2,0,3.6-1.1,3.6-3.7c0-2.6-1.4-3.7-3.6-3.7H294V398.1z"/>
	<path class="st0" d="M308.9,395c0-6.5,3.5-8.9,8.4-8.9s8.4,2.4,8.4,8.9v9.5c0,6.5-3.5,8.9-8.4,8.9s-8.4-2.4-8.4-8.9V395z
		 M314,405.2c0,2.9,1.3,3.7,3.3,3.7s3.3-0.8,3.3-3.7v-10.8c0-2.9-1.3-3.7-3.3-3.7s-3.3,0.8-3.3,3.7V405.2z"/>
	<path class="st0" d="M334.4,386.5v18.6c0,2.5,1.1,3.9,3.6,3.9s3.6-1.3,3.6-3.9v-18.6h5.1v18.6c0,5.8-3.5,8.3-8.7,8.3
		s-8.6-2.5-8.6-8.3v-18.6H334.4z"/>
	<path class="st0" d="M350.3,413.1v-26.5h7.3c6.2,0,9.3,2.9,9.3,7.9c0,5-3.1,7.9-9.3,7.9h-2.2v10.7H350.3z M355.4,398.2h2.7
		c2.5,0,3.7-1.2,3.7-3.7c0-2.5-1.2-3.7-3.7-3.7h-2.7V398.2z"/>
</g>
<g>
	<path class="st0" d="M101.1,439.2l0.1,0.3c0,0.1-0.1,0.3-0.2,0.3c-0.1,0-0.2-0.1-0.4-0.5c-1.5-2.7-3.6-4.1-6.3-4.1
		c-4.2,0-6.8,2.8-6.8,7.3c0,5.1,3,8.7,7.2,8.7c1.5,0,2.9-0.4,4.1-1.3c0.9-0.6,1.7-1.4,2.1-2.1c0.3-0.6,0.3-0.7,0.5-0.7
		c0.1,0,0.2,0.1,0.2,0.2c0,0.1,0,0.1-0.1,0.4l-0.3,1.5l-0.1,0.2c-0.1,0.3-0.1,0.4-0.7,0.7c-1.9,1.2-3.9,1.8-6.1,1.8
		c-2.5,0-4.6-0.7-6.1-1.9c-1.8-1.5-2.9-4-2.9-6.7c0-5.2,3.8-9,8.9-9c1.6,0,3.4,0.5,4.8,1.2c0.6,0.3,0.8,0.4,0.9,0.4
		c0.1,0,0.1,0,0.2-0.1c0.2-0.1,0.3-0.2,0.4-0.2c0.1,0,0.2,0.1,0.3,0.5L101.1,439.2z"/>
	<path class="st0" d="M107,448.3c0,1.6,0,1.6,0.2,1.9c0.2,0.4,0.5,0.5,1.9,0.5c3.2,0,5.7-0.8,6.3-2c0.2-0.3,0.2-0.3,0.3-0.3
		s0.2,0.1,0.2,0.2c0,0.5-0.6,1.6-1.1,2.2c-0.7,0.7-1.7,1-3.1,1c-0.5,0-0.5,0-2.3-0.1c-0.6-0.1-1.8-0.1-2.5-0.1c-0.8,0-2,0.1-2.5,0.2
		c-0.3,0.1-0.6,0.1-0.7,0.1c-0.2,0-0.3-0.1-0.3-0.2c0-0.1,0.1-0.2,0.3-0.3c1.3-0.4,1.5-0.9,1.4-3v-10.5c0-1.2,0-1.4-0.4-1.9
		c-0.3-0.4-0.5-0.5-1.5-0.7c-0.2-0.1-0.3-0.1-0.3-0.3c0-0.2,0.2-0.3,0.5-0.3c0.2,0,0.4,0,0.7,0.1c0.5,0.1,1.4,0.1,2,0.1
		c0.6,0,1.6,0,2-0.1c0.2,0,0.5,0,0.6,0c0.2,0,0.3,0.1,0.3,0.2c0,0.3-0.1,0.3-0.8,0.5c-0.8,0.2-1.1,0.8-1.1,2.6V448.3z"/>
	<path class="st0" d="M120.8,441.7c0,0.8,0.1,0.8,0.7,0.8h1.9c1.2,0,2.2-0.1,2.6-0.3c0.4-0.2,0.5-0.3,0.7-1.2
		c0.1-0.2,0.1-0.3,0.3-0.3c0.2,0,0.3,0.1,0.3,0.3c0,0,0,0.2,0,0.3c-0.1,1.1-0.1,1.5-0.1,2.2c0,0.6,0,1,0.1,1.5c0,0.2,0,0.3,0,0.4
		c0,0.2-0.1,0.3-0.2,0.3c-0.2,0-0.3-0.1-0.4-0.6c-0.1-0.6-0.5-1.1-0.9-1.3c-0.3-0.1-0.6-0.1-1.2-0.1h-2.7c-0.8,0-1.1,0.2-1,0.6
		l0,0.4v4.1c0,1.8,0.2,2,2,2c1.4,0,2.3-0.1,3.3-0.3c1.7-0.4,2.6-0.9,3.2-1.9c0.1-0.2,0.2-0.2,0.3-0.2s0.2,0.1,0.2,0.3
		c0,0.6-0.5,1.6-1.2,2.2c-0.7,0.7-1.5,1-2.5,1c-0.2,0-0.6,0-1-0.1c-1.8-0.2-2.7-0.2-3.9-0.2c-1,0-2.7,0.1-3.1,0.2
		c-0.3,0.1-0.5,0.1-0.7,0.1c-0.2,0-0.4-0.1-0.4-0.3c0-0.2,0.1-0.2,0.8-0.4c0.8-0.3,0.9-0.8,0.9-3v-10c0-1.2-0.1-1.8-0.3-2.2
		c-0.3-0.5-0.7-0.8-1.6-0.8c-0.3,0-0.4-0.1-0.4-0.2c0-0.2,0.2-0.4,0.5-0.4c0.2,0,0.5,0,0.9,0.1c1.5,0.2,2.2,0.2,4,0.2
		c1.4,0,5.1-0.1,5.6-0.2c0.2,0,0.4,0,0.5,0c0.3,0,0.4,0.2,0.4,0.4l0,0.3c0,0.2-0.2,1.5-0.2,1.7c0,0.8-0.1,1.1-0.4,1.1
		c-0.2,0-0.2-0.1-0.2-0.7c0-0.7-0.3-1.2-0.8-1.4c-0.5-0.2-1.4-0.3-2.9-0.3h-2c-1,0-1.2,0.2-1.2,1V441.7z"/>
	<path class="st0" d="M146.9,439.2c-0.6,1-0.7,1.3-1.1,2c-0.4,0.7-0.7,1.4-1,2.1c-0.5,1.1-1.1,2.3-1.6,3.4c-0.4,0.8-0.7,1.6-1,2.3
		c-0.2,0.5-0.4,0.9-0.7,1.4c-0.1,0.1-0.1,0.3-0.2,0.5c-0.2,0.4-0.3,0.6-0.5,0.6c-0.2,0-0.4-0.2-0.6-0.6l-0.3-0.7
		c-0.1-0.2-0.2-0.4-0.3-0.5l-4.6-10.1l-0.3,6.1l0,2.9c0,1.6,0.5,2.4,1.5,2.6c0.6,0.1,0.8,0.2,0.8,0.4c0,0.2-0.2,0.3-0.5,0.3
		c-0.1,0-0.1,0-1.4-0.1c-0.6,0-1.1-0.1-1.2-0.1c-0.5,0-1.1,0.1-1.6,0.1c-0.2,0-0.3,0-0.4,0c-0.2,0-0.4-0.1-0.4-0.3
		c0-0.1,0.1-0.2,0.3-0.3c1-0.2,1.4-0.7,1.6-1.8c0.1-0.8,0.5-7.7,0.5-9.8c0-3-0.7-4.3-2.5-4.6c-0.3-0.1-0.4-0.1-0.4-0.3
		c0-0.2,0.1-0.3,0.3-0.3l0.4,0c0.2,0,0.3,0,0.8,0l1.3,0c0.2,0,0.4,0,0.5,0c0.4,0,0.5,0.1,1,1.1l5.2,11.1c0.5,1.1,0.8,1.6,0.8,1.6
		c0.1,0,0.1-0.1,0.2-0.2l0.2-0.3l0.1-0.3l5.8-12.5c0.3-0.5,0.3-0.6,0.6-0.6c0,0,0.3,0,0.6,0h0.5l1.2,0c0.2,0,0.3,0,0.4,0
		c0.2,0,0.2,0.1,0.2,0.3c0,0.2,0,0.2-0.8,0.4c-0.8,0.2-1.1,0.9-1.1,2.7c0,0.4,0,0.9,0.1,3.1l0.2,6.7c0.1,3,0.2,3.2,1.7,3.5
		c0.5,0.1,0.7,0.1,0.7,0.3c0,0.2-0.2,0.3-0.5,0.3c-0.1,0-0.1,0-1.3-0.1c-0.3,0-0.6-0.1-1-0.1c-0.3,0-0.4,0-2.2,0.1
		c-0.2,0-0.4,0-0.5,0c-0.2,0-0.4-0.1-0.4-0.2c0-0.1,0.1-0.2,0.3-0.3c1-0.3,1.2-0.7,1.2-2.1c0-0.3,0-1.7-0.1-2.1L146.9,439.2z"/>
	<path class="st0" d="M163.4,438c0,0.3,0.1,0.5,0.1,0.5c0,0.2-0.1,0.4-0.3,0.4c-0.2,0-0.3-0.1-0.4-0.6c-0.6-1.8-2.6-3.1-4.8-3.1
		c-1.9,0-3.2,1.2-3.2,2.8c0,0.7,0.3,1.4,0.7,1.9c0.7,0.8,0.8,0.8,3.9,1.9s4.6,2.6,4.6,4.9c0,3.1-2.5,5.3-5.9,5.3
		c-1.4,0-3.3-0.5-3.9-1c-0.2-0.2-0.3-0.3-0.4-1.1c-0.1-0.4-0.2-0.7-0.3-1.1c-0.2-0.7-0.3-1.3-0.3-1.6c0-0.2,0.1-0.4,0.3-0.4
		c0.1,0,0.2,0.1,0.2,0.2c0.4,1.2,0.9,2,1.6,2.6c0.9,0.8,2.3,1.3,3.6,1.3c2.2,0,4-1.5,4-3.5c0-1-0.5-1.9-1.3-2.5
		c-0.4-0.3-0.9-0.5-3-1.2c-2.2-0.7-3.1-1.3-4-2.2c-0.7-0.8-1.1-1.7-1.1-2.8c0-2.6,2.2-4.5,5.4-4.5c1.1,0,1.4,0.1,3,0.7
		c0.1,0,0.2,0.1,0.2,0.1c0.2,0,0.2,0,0.5-0.3c0,0,0.1-0.1,0.1-0.1c0.2,0,0.3,0.2,0.3,0.6c0.1,0.5,0.1,0.9,0.2,1.2L163.4,438z"/>
	<path class="st0" d="M183.4,443c0,5.2-3.7,9-8.9,9c-2.2,0-4.4-0.7-5.9-1.8c-2-1.5-3.1-4.2-3.1-7.1c0-2.5,1.2-5.2,3-6.7
		c1.6-1.3,3.8-2.1,6.1-2.1C179.7,434.4,183.4,438,183.4,443z M167.5,442.3c0,2.8,0.8,5.1,2.5,6.8c1.4,1.4,3.1,2.2,5,2.2
		c3.8,0,6.6-3.1,6.6-7.4c0-2.5-0.9-4.9-2.6-6.5c-1.4-1.4-3.1-2.1-5.2-2.1C169.9,435.2,167.5,438,167.5,442.3z"/>
	<path class="st0" d="M199.5,447.5c0,1.6,0,2.7,0,3.4v0.3c0,0.6-0.1,0.7-0.4,0.7c-0.2,0-0.2,0-0.6-0.5l-10.4-12
		c-0.2-0.2-0.2-0.2-0.3-0.2c-0.2,0-0.2,0.1-0.2,0.6v8.4c0,1.4,0,1.7,0.2,2.1c0.2,0.5,0.5,0.7,1.5,0.9c0.3,0.1,0.4,0.2,0.4,0.3
		c0,0.2-0.1,0.3-0.3,0.3l-0.4,0l-1.1-0.1c-0.6-0.1-1.1-0.1-1.3-0.1c-0.2,0-1.3,0.1-1.5,0.1c-0.2,0-0.4,0.1-0.5,0.1
		c-0.2,0-0.4-0.1-0.4-0.2s0.1-0.2,0.4-0.3c1.1-0.4,1.5-0.8,1.7-1.8c0.1-0.3,0.1-0.6,0.1-1.5v-8c0-1.6-0.2-2.4-0.7-3.3
		c-0.5-0.9-1.1-1.3-2-1.5c-0.2,0-0.3-0.1-0.3-0.3s0.1-0.3,0.3-0.3h0.2c0.1,0,1.2,0,1.3,0h0.2c0.2,0,0.4,0,0.4,0
		c0.3,0,0.4,0.1,0.7,0.4l11.4,12.9c0.2,0.2,0.3,0.3,0.3,0.3c0.1,0,0.2-0.1,0.2-0.5v-5.9c0-4.3-0.1-4.9-0.5-5.7
		c-0.3-0.6-0.6-0.7-2-0.9c-0.3-0.1-0.4-0.2-0.4-0.3c0-0.2,0.1-0.2,0.4-0.2l0.5,0c0.5,0.1,1.7,0.1,2.4,0.1c0.5,0,0.8,0,1.1-0.1
		c0.3-0.1,0.5-0.1,0.6-0.1c0.2,0,0.4,0.1,0.4,0.3c0,0.1-0.1,0.2-0.3,0.2c-0.8,0.2-1.1,0.5-1.2,1.4l-0.1,3V447.5z"/>
	<path class="st0" d="M212.9,438.3c0,2.8-2.3,5.1-5.1,5.1c-2.9,0-5.1-2.3-5.1-5.2c0-1.3,0.6-2.7,1.5-3.6c1-1,2.2-1.5,3.6-1.5
		C210.6,433.2,212.9,435.4,212.9,438.3z M203.2,438.2c0,2.6,2,4.6,4.6,4.6c2.5,0,4.6-2.1,4.6-4.6s-2.1-4.6-4.6-4.6
		C205.3,433.7,203.2,435.8,203.2,438.2z M209.6,440c0.5,0.8,0.8,1,1.3,1c0.1,0,0.1,0,0.1,0.1c0,0.1-0.3,0.2-0.7,0.2
		c-0.5,0-0.9-0.3-1.4-0.9l-1.1-1.6l-0.1-0.1c-0.1-0.1-0.1-0.1-0.3-0.1H207c-0.2,0-0.2,0-0.2,0.1v1.3c0,0.8,0.1,1,0.7,1.1
		c0.1,0,0.2,0.1,0.2,0.1s-0.1,0.1-0.2,0.1c-0.1,0-0.1,0-0.3,0l-0.9,0c-0.3,0-0.5,0-0.7,0l-0.2,0c-0.1,0-0.2,0-0.2-0.1s0-0.1,0.1-0.2
		c0.4-0.1,0.5-0.3,0.5-1.2v-2.9c0-1.2,0-1.3-0.6-1.3c-0.1,0-0.2-0.1-0.2-0.2c0-0.1,0.1-0.1,0.2-0.1l0.3,0c0.1,0,0.2,0,0.4,0
		c0.2,0,0.3,0,0.7,0c0.2,0,0.5,0,0.7,0c1.3,0,2,0.5,2,1.5c0,0.6-0.4,1.2-1,1.5L209.6,440z M207.5,438.1c0.7,0,1.2-0.4,1.2-1.1
		c0-0.8-0.6-1.3-1.5-1.3c-0.4,0-0.4,0-0.4,0.5v1.7c0,0.2,0,0.2,0.3,0.2H207.5z"/>
	<path class="st0" d="M235.9,438.7c0-1.3-0.1-1.7-0.3-2.4c-0.3-0.8-0.7-1.1-1.7-1.2c-0.3,0-0.4-0.1-0.4-0.3c0-0.2,0.1-0.2,0.2-0.2
		c0.1,0,0.4,0.1,0.8,0.1c0.4,0.1,0.6,0.1,1.1,0.1l1.7,0c0.3,0,0.5-0.1,0.6-0.1c0.2,0,0.2,0.1,0.2,0.2c0,0.2,0,0.2-0.7,0.5
		c-0.6,0.2-0.8,1-0.8,3.2v5.7c0,2.3-0.5,4.2-1.5,5.4c-1.2,1.4-3.4,2.4-5.8,2.4c-2.8,0-5.3-1.3-6.3-3.2c-0.4-0.9-0.8-2.7-0.8-4v-6.3
		c0-2.5-0.3-2.9-1.9-3.2c-0.3-0.1-0.4-0.1-0.4-0.3c0-0.2,0.2-0.3,0.5-0.3l0.8,0c0.4,0.1,0.6,0.1,0.8,0.1c1.4,0,2.2,0,2.7-0.1
		c0.2,0,0.5-0.1,0.6-0.1c0.2,0,0.3,0.1,0.3,0.2s-0.1,0.3-0.4,0.3c-1,0.2-1.2,0.7-1.2,2.3l0,0.8v6.2c0,2.3,0.3,3.7,1.1,4.7
		c0.9,1.1,2.6,1.8,4.6,1.8c2.4,0,4.2-0.9,5.1-2.5c0.5-0.9,0.8-2.5,0.8-4V438.7z"/>
	<path class="st0" d="M255,447.5c0,1.6,0,2.7,0,3.4v0.3c0,0.6-0.1,0.7-0.4,0.7c-0.2,0-0.2,0-0.6-0.5l-10.4-12
		c-0.2-0.2-0.2-0.2-0.3-0.2c-0.2,0-0.2,0.1-0.2,0.6v8.4c0,1.4,0,1.7,0.2,2.1c0.2,0.5,0.5,0.7,1.5,0.9c0.3,0.1,0.4,0.2,0.4,0.3
		c0,0.2-0.1,0.3-0.3,0.3l-0.4,0l-1.1-0.1c-0.6-0.1-1.1-0.1-1.3-0.1c-0.2,0-1.3,0.1-1.5,0.1c-0.2,0-0.4,0.1-0.5,0.1
		c-0.2,0-0.4-0.1-0.4-0.2s0.1-0.2,0.4-0.3c1.1-0.4,1.5-0.8,1.7-1.8c0.1-0.3,0.1-0.6,0.1-1.5v-8c0-1.6-0.2-2.4-0.7-3.3
		c-0.5-0.9-1.1-1.3-2-1.5c-0.2,0-0.3-0.1-0.3-0.3s0.1-0.3,0.3-0.3h0.2c0.1,0,1.2,0,1.3,0h0.2c0.2,0,0.4,0,0.4,0
		c0.3,0,0.4,0.1,0.7,0.4l11.4,12.9c0.2,0.2,0.3,0.3,0.3,0.3c0.1,0,0.2-0.1,0.2-0.5v-5.9c0-4.3-0.1-4.9-0.5-5.7
		c-0.3-0.6-0.6-0.7-2-0.9c-0.3-0.1-0.4-0.2-0.4-0.3c0-0.2,0.1-0.2,0.4-0.2l0.5,0c0.5,0.1,1.7,0.1,2.4,0.1c0.5,0,0.8,0,1.1-0.1
		c0.3-0.1,0.5-0.1,0.6-0.1c0.2,0,0.4,0.1,0.4,0.3c0,0.1-0.1,0.2-0.3,0.2c-0.8,0.2-1.1,0.5-1.2,1.4l-0.1,3V447.5z"/>
	<path class="st0" d="M262.8,447.7c0,1.7,0.1,2.1,0.4,2.7c0.3,0.6,0.7,0.7,1.6,0.9c0.4,0.1,0.6,0.2,0.6,0.3c0,0.2-0.2,0.3-0.4,0.3
		c-0.1,0-0.3,0-0.5-0.1c-0.3,0-1.8-0.1-3-0.1c-0.6,0-1,0-1.6,0.1c-0.2,0-0.5,0.1-0.6,0.1c-0.2,0-0.4-0.1-0.4-0.3s0.1-0.3,0.4-0.3
		c1.3-0.2,1.5-0.6,1.5-2.7V438c0-2.1-0.3-2.5-1.9-2.8c-0.3-0.1-0.4-0.1-0.4-0.3c0-0.2,0.2-0.3,0.4-0.3h0.2c0.8,0.1,1.5,0.1,2.4,0.1
		c0.8,0,1.3,0,2.5-0.1c0.1,0,0.3,0,0.3,0c0.2,0,0.3,0.1,0.3,0.2c0,0.2,0,0.2-1,0.6c-0.7,0.3-0.9,1.1-0.9,3V447.7z"/>
	<path class="st0" d="M275.2,448.6c0.1,0.3,0.2,0.4,0.3,0.4c0.1,0,0.2-0.1,0.7-1.2l2.7-6.4c1-2.4,1.8-4.7,1.8-5.4
		c0-0.5-0.2-0.7-0.9-0.8c-0.6-0.1-0.7-0.2-0.7-0.3s0.1-0.3,0.4-0.3c0.1,0,0.2,0,0.4,0c0.7,0.1,0.9,0.1,1.1,0.1h0.5h0.6l1,0
		c0.1,0,0.3,0,0.3,0c0.2,0,0.3,0.1,0.3,0.2s-0.1,0.2-0.3,0.3c-0.9,0.4-1,0.5-1.7,2.3l-6.2,14.4c-0.2,0.4-0.3,0.6-0.5,0.6
		c-0.2,0-0.4-0.2-0.5-0.6l-6.3-14.5c-0.6-1.4-0.9-1.8-1.8-1.9c-0.9-0.2-0.9-0.2-0.9-0.4c0-0.2,0.1-0.2,0.3-0.2l0.4,0
		c0.1,0,2.1,0.1,2.5,0.1c0.4,0,1.1,0,1.5-0.1c0.1,0,0.3,0,0.3,0c0.2,0,0.4,0.1,0.4,0.3c0,0.1-0.1,0.2-0.3,0.3
		c-0.7,0.3-0.8,0.3-0.8,0.8c0,0.5,0.1,0.7,0.5,1.7L275.2,448.6z"/>
	<path class="st0" d="M288.2,441.7c0,0.8,0.1,0.8,0.7,0.8h1.9c1.2,0,2.2-0.1,2.6-0.3c0.4-0.2,0.5-0.3,0.7-1.2
		c0.1-0.2,0.1-0.3,0.3-0.3c0.2,0,0.3,0.1,0.3,0.3c0,0,0,0.2,0,0.3c-0.1,1.1-0.1,1.5-0.1,2.2c0,0.6,0,1,0.1,1.5c0,0.2,0,0.3,0,0.4
		c0,0.2-0.1,0.3-0.2,0.3c-0.2,0-0.3-0.1-0.4-0.6c-0.1-0.6-0.5-1.1-0.9-1.3c-0.3-0.1-0.6-0.1-1.2-0.1h-2.7c-0.8,0-1.1,0.2-1,0.6
		l0,0.4v4.1c0,1.8,0.2,2,2,2c1.4,0,2.3-0.1,3.3-0.3c1.7-0.4,2.6-0.9,3.2-1.9c0.1-0.2,0.2-0.2,0.3-0.2s0.2,0.1,0.2,0.3
		c0,0.6-0.5,1.6-1.2,2.2c-0.7,0.7-1.5,1-2.5,1c-0.2,0-0.6,0-1-0.1c-1.8-0.2-2.7-0.2-3.9-0.2c-1,0-2.7,0.1-3.1,0.2
		c-0.3,0.1-0.5,0.1-0.7,0.1c-0.2,0-0.4-0.1-0.4-0.3c0-0.2,0.1-0.2,0.8-0.4c0.8-0.3,0.9-0.8,0.9-3v-10c0-1.2-0.1-1.8-0.3-2.2
		c-0.3-0.5-0.7-0.8-1.6-0.8c-0.3,0-0.4-0.1-0.4-0.2c0-0.2,0.2-0.4,0.5-0.4c0.2,0,0.5,0,0.9,0.1c1.5,0.2,2.2,0.2,4,0.2
		c1.4,0,5.1-0.1,5.6-0.2c0.2,0,0.4,0,0.5,0c0.3,0,0.4,0.2,0.4,0.4l0,0.3c0,0.2-0.2,1.5-0.2,1.7c0,0.8-0.1,1.1-0.4,1.1
		c-0.2,0-0.2-0.1-0.2-0.7c0-0.7-0.3-1.2-0.8-1.4c-0.5-0.2-1.4-0.3-2.9-0.3h-2c-1,0-1.2,0.2-1.2,1V441.7z"/>
	<path class="st0" d="M311,448.2c1.5,2.4,2.4,3.1,3.7,3c0.1,0,0.2,0.1,0.2,0.2c0,0.3-0.8,0.5-1.8,0.5c-1.5,0-2.6-0.7-3.8-2.6
		l-3.1-4.7l-0.2-0.3c-0.3-0.4-0.4-0.5-1-0.5h-1.4c-0.6,0-0.7,0.1-0.7,0.5v3.9v0.8c-0.1,1.6,0.6,2.3,2.3,2.4c0.3,0.1,0.5,0.1,0.5,0.3
		s-0.2,0.3-0.4,0.3c-0.2,0-0.4,0-0.8-0.1c-0.3-0.1-1.6-0.1-2.8-0.1c-0.6,0-1.2,0-1.7,0.1c-0.3,0-0.6,0.1-0.6,0.1
		c-0.2,0-0.3-0.1-0.3-0.3c0-0.2,0.1-0.2,0.3-0.3c0.7-0.1,1.3-0.6,1.4-1.1c0.2-0.6,0.2-1.2,0.2-2.6v-8.3c0-2-0.1-2.6-0.2-3.1
		c-0.1-0.4-0.5-0.7-0.9-0.8c-0.1,0-0.4-0.1-0.8-0.2c-0.3-0.1-0.4-0.2-0.4-0.3c0-0.2,0.2-0.3,0.4-0.3c0.1,0,0.5,0,0.9,0.1l1,0
		c0.6,0,0.6,0,2-0.1c0.6,0,1.3,0,1.9,0c2,0,3.2,0.3,4.1,1c1,0.7,1.5,1.9,1.5,3.2c0,1.8-1.1,3.3-3.1,4.3L311,448.2z M305.3,442.9
		c2.2,0,3.5-1.3,3.5-3.3c0-1.2-0.5-2.4-1.4-3.1c-0.7-0.6-2-1-3.1-1c-0.6,0-0.9,0.1-1.1,0.4c-0.2,0.2-0.2,0.3-0.2,1.1v5
		c0,0.8,0.1,0.9,0.9,0.9H305.3z"/>
	<path class="st0" d="M325.6,438c0,0.3,0.1,0.5,0.1,0.5c0,0.2-0.1,0.4-0.3,0.4c-0.2,0-0.3-0.1-0.4-0.6c-0.6-1.8-2.6-3.1-4.8-3.1
		c-1.9,0-3.2,1.2-3.2,2.8c0,0.7,0.3,1.4,0.7,1.9c0.7,0.8,0.8,0.8,3.9,1.9c3.1,1,4.6,2.6,4.6,4.9c0,3.1-2.5,5.3-5.9,5.3
		c-1.4,0-3.3-0.5-3.9-1c-0.2-0.2-0.3-0.3-0.4-1.1c-0.1-0.4-0.2-0.7-0.3-1.1c-0.2-0.7-0.3-1.3-0.3-1.6c0-0.2,0.1-0.4,0.3-0.4
		c0.1,0,0.2,0.1,0.2,0.2c0.4,1.2,0.9,2,1.6,2.6c0.9,0.8,2.3,1.3,3.6,1.3c2.2,0,4-1.5,4-3.5c0-1-0.5-1.9-1.3-2.5
		c-0.4-0.3-0.9-0.5-3-1.2c-2.2-0.7-3.1-1.3-4-2.2c-0.7-0.8-1.1-1.7-1.1-2.8c0-2.6,2.2-4.5,5.4-4.5c1.1,0,1.4,0.1,3,0.7
		c0.1,0,0.2,0.1,0.2,0.1c0.2,0,0.2,0,0.5-0.3c0,0,0.1-0.1,0.1-0.1c0.2,0,0.3,0.2,0.3,0.6c0.1,0.5,0.1,0.9,0.2,1.2L325.6,438z"/>
	<path class="st0" d="M332.4,447.7c0,1.7,0.1,2.1,0.4,2.7c0.3,0.6,0.7,0.7,1.6,0.9c0.4,0.1,0.6,0.2,0.6,0.3c0,0.2-0.2,0.3-0.4,0.3
		c-0.1,0-0.3,0-0.5-0.1c-0.3,0-1.8-0.1-3-0.1c-0.6,0-1,0-1.6,0.1c-0.2,0-0.5,0.1-0.6,0.1c-0.2,0-0.4-0.1-0.4-0.3s0.1-0.3,0.4-0.3
		c1.3-0.2,1.5-0.6,1.5-2.7V438c0-2.1-0.3-2.5-1.9-2.8c-0.3-0.1-0.4-0.1-0.4-0.3c0-0.2,0.2-0.3,0.4-0.3h0.2c0.8,0.1,1.5,0.1,2.4,0.1
		c0.8,0,1.3,0,2.5-0.1c0.1,0,0.3,0,0.3,0c0.2,0,0.3,0.1,0.3,0.2c0,0.2,0,0.2-1,0.6c-0.7,0.3-0.9,1.1-0.9,3V447.7z"/>
	<path class="st0" d="M345.1,436.1c-0.7,0-0.8,0.1-0.8,0.9v11.5c0,1.3,0,1.3,0.1,1.7c0.2,0.6,0.6,0.9,1.5,1.1
		c0.3,0.1,0.4,0.2,0.4,0.3c0,0.2-0.2,0.3-0.3,0.3c-0.1,0-0.4,0-0.6-0.1c-0.1,0-1.2-0.1-2.1-0.1c-0.4,0-1.6,0-1.8,0.1
		c-0.4,0.1-0.8,0.1-0.8,0.1c-0.2,0-0.4-0.1-0.4-0.3s0.1-0.2,0.4-0.3c1.1-0.2,1.5-0.5,1.6-1.3c0-0.2,0-0.2,0-1.4v-11.5
		c0-1-0.1-1-0.7-1h-3.3c-0.4,0-1.1,0.2-1.4,0.3c-0.4,0.3-0.6,0.7-0.8,1.6c-0.1,0.3-0.2,0.5-0.3,0.5c-0.1,0-0.2-0.2-0.2-0.4
		c0-0.1,0.1-0.4,0.2-0.9c0.1-0.5,0.2-1.2,0.2-1.5c0-0.8,0.1-0.9,0.7-0.9h13.3c0.9,0,1,0,1,1.3l0.1,0.8c0.1,0.3,0.1,0.5,0.1,0.6
		c0,0.2-0.1,0.4-0.3,0.4c-0.1,0-0.2-0.1-0.3-0.4c-0.3-1.2-0.5-1.4-1.9-1.4H345.1z"/>
	<path class="st0" d="M360.7,448.7c0,2.3,0,2.4,1.6,2.6c0.3,0.1,0.4,0.1,0.4,0.3s-0.2,0.3-0.4,0.3c-0.1,0-0.4,0-0.7-0.1
		c-0.3-0.1-0.3-0.1-1.9-0.1c-0.4,0-2.1,0.1-2.2,0.1c-0.2,0-0.4,0.1-0.5,0.1c-0.2,0-0.3-0.1-0.3-0.2c0-0.2,0.1-0.3,0.4-0.3
		c1.5-0.2,1.6-0.5,1.6-2.8v-3.7c0-1-0.1-1.3-0.7-2.2l-3.5-5.5c-0.8-1.4-1.3-1.8-2.7-2c-0.3,0-0.4-0.1-0.4-0.2c0-0.2,0.2-0.3,0.5-0.3
		c0.1,0,0.3,0,0.5,0c0.6,0.1,1.1,0.1,1.9,0.1c0.7,0,1.9,0,2.1-0.1c0.3,0,0.6,0,0.7,0c0.2,0,0.4,0.1,0.4,0.3c0,0.1-0.1,0.2-0.3,0.3
		c-0.6,0.2-0.8,0.4-0.8,0.9c0,0.3,0,0.3,0.9,1.8l2.6,4.1c0.3,0.4,0.3,0.4,0.4,0.4c0.1,0,0.2-0.1,0.4-0.4l1.8-2.7
		c1.4-2.2,1.5-2.4,1.5-2.8c0-0.6-0.4-0.9-1.5-1.2c-0.2-0.1-0.3-0.1-0.3-0.3s0.1-0.2,0.3-0.2c0.1,0,0.4,0,0.7,0.1
		c0.3,0.1,0.9,0.1,1.7,0.1c0.8,0,1.3,0,1.6-0.1c0.3,0,0.6-0.1,0.7-0.1c0.2,0,0.3,0.1,0.3,0.2c0,0.1-0.1,0.2-0.3,0.3
		c-1,0.3-1.4,0.7-2.6,2.6l-3,4.5c-0.8,1.1-0.8,1.1-0.8,2.4V448.7z"/>
</g>
<path class="st0" d="M483.9,418.5c-11-4.6-9.2-4.4-20.1-8.9c2,3.6,2.1,3.3,3.7,5.9c-2-0.7-3.9,0.2-5.5,3c-1.1,2-2,4.2-3,6.3
	c-0.3,0.7-0.4,1.5-1.4,2c-1.4-3.5-2.2-7.3-3.3-10.9c-0.6-2.1-1.2-4.2-1.9-6.2c-0.5-1.4-1.5-2.6-3.2-2.7c-1.8,0-2.8,1.3-3.3,2.8
	c-1.9,5-2.4,10.2-3.5,15.4c-0.5,2.6-1,5.2-2.1,7.9c-0.7-4.7-1.4-9.4-2.1-14.1c-0.9-5.8-1.7-11.6-2.6-17.4c-0.2-1.2-0.5-2.4-1.2-3.4
	c-2-2.5-4.2-2.1-5.2,1.1c-1.5,4.3-1.8,8.8-2.3,13.3c-1,8-1.9,16-2.8,24c-0.1,0.9-0.3,1.8-0.8,2.7c-1.1-10.1-2.1-20.2-3.2-30.4
	c-0.5-4.5-0.8-9-1.9-13.3c-0.4-1.8-0.7-4.1-3.3-3.9c-2.3,0.1-2.7,2.2-3.1,4c-1.4,6.5-1.9,13.2-2.6,19.8c-0.8,7.2-1.5,14.5-2.2,21.7
	c-0.1,0.8-0.3,1.5-0.6,2.2c-1.9-11.7-2.6-23.6-4.6-35.3v0c-0.3-1.4-0.5-2.9-0.9-4.3c-0.4-1.6-1.2-3-3.1-3c-1.8,0-2.5,1.4-2.9,2.9
	c-1.3,4.1-1.7,8.3-2.3,12.5c-0.9,6.5-1.8,13-2.7,19.5c-0.1,0.6-0.3,1.1-0.9,1.8c-0.9-4.8-1.8-9.5-2.6-14.3c-0.6-3.1-1.1-6.1-2.2-9
	c-0.6-1.5-1.4-2.9-3.3-2.9c-1.8,0-2.7,1.3-3.4,2.8c-1.7,4-2.4,8.3-3.6,12.4c-0.3,1.2-0.7,2.3-1,3.5c-0.6,1.7-1.1,0.6-1.6-0.1
	c-0.9-2.7-2-5.3-3.5-7.8c-2.2-3.5-5.3-3.7-8-0.5c-1,1.3-2,2.6-3,3.9c-0.9,1.2-2,1.5-3.3,0.5c-3.8-3.3-7.8-2.7-12.6-1.7
	c-3.5,0.8-255,0.4-255,0.4l0,4.2c0.1-0.1,245.2-0.2,248.9-0.1c3.2,0.1,6.2,0.3,9.2-0.9c2-0.8,3.9-0.6,5.6,0.8
	c0.3,0.2,0.6,0.4,0.9,0.6c4.4,2.9,7,2.5,10.3-1.9c3-4,2.8-4.1,5,0.7c1.2,2.5,1.7,5.5,3.9,7.5c2.6,2,4.5,1.7,6-1.3
	c2-3.9,2.6-8.2,3.8-12.4c0.3-1,0.3-2.2,1.4-3.6c0.8,4.2,1.5,7.9,2.2,11.7c0.7,3.6,1.3,7.1,2.1,10.7c0.2,1,0.5,2,0.8,3
	c0.6,1.6,1.2,3.2,3.3,3.2c2,0,2.7-1.6,3.2-3.2c1.1-3.5,1.6-7.1,2.1-10.7c0.9-6.6,1.8-13.2,2.7-19.8c0.1-0.4,0-0.9,0.7-1.1
	c0.8,5.6,1.5,11.2,2.3,16.9c0.5,7.5,1.4,15,2.8,22.4c0.1,0.4,0.2,0.8,0.4,1.2c0.5,1.5,1.1,3.1,3,3.1c1.8-0.1,2.6-1.6,3-3.1
	c1.4-5.4,1.7-10.9,2.3-16.4c0.9-8.7,1.8-17.4,2.7-26c0.1-0.5,0.2-1,0.8-1.5c0.6,5.4,1.1,10.8,1.7,16.2c0.9,8.6,1.5,17.2,3.1,25.7
	c0.4,2.1,0.6,5,3.4,5.1c3,0.1,3-2.9,3.4-5c1.7-9.1,2.3-18.3,3.5-27.5c0.5-3.5,0.9-7.1,1.8-10.6c0.3,1,0.5,2,0.8,2.9
	c1,9,2.1,18,4,26.9c0.1,0.6,0.3,1.2,0.5,1.7c0.6,1.4,1.3,2.8,3,2.7c1.7,0,2.6-1.2,3.1-2.7c1.5-4.3,1.9-8.8,2.8-13.2
	c0.8-3.9,1.6-7.9,2.5-12.6c1.6,3.2,1.9,5.9,2.7,8.5c0.8,2.5,1.3,5,2.5,7.4c0.7,1.4,1.6,2.7,3.4,2.8c1.9,0,3-1.2,3.8-2.7
	c1.4-2.8,2.6-5.7,3.9-8.5c0.6-1.4,1.4-1.6,2.4-0.3c0,0,0.1,0.1,0.1,0.1c-0.9,2.1-2.5,6.1-2.5,6.1S473.1,422.9,483.9,418.5z"/>
</svg>
